<mxfile host="app.diagrams.net" modified="2020-10-23T15:03:31.276Z" agent="5.0 (Windows NT 10.0; Win64; x64) AppleWebKit/537.36 (KHTML, like Gecko) Chrome/86.0.4240.111 Safari/537.36" etag="Xc9Hl93NIfPhTDBppo6u" version="13.8.1" type="github">
  <diagram id="SdoxMhTwRla6ZROGYjuh" name="Page-1">
    <mxGraphModel dx="2512" dy="794" grid="1" gridSize="10" guides="1" tooltips="1" connect="1" arrows="1" fold="1" page="1" pageScale="1" pageWidth="850" pageHeight="1100" math="0" shadow="0">
      <root>
        <mxCell id="0" />
        <mxCell id="1" parent="0" />
        <mxCell id="YvqR_4JBAzZON_oEMTci-1" value="Employee" style="shape=table;startSize=30;container=1;collapsible=1;childLayout=tableLayout;fixedRows=1;rowLines=0;fontStyle=1;align=center;resizeLast=1;" parent="1" vertex="1">
          <mxGeometry x="120" y="120" width="180" height="160" as="geometry" />
        </mxCell>
        <mxCell id="YvqR_4JBAzZON_oEMTci-2" value="" style="shape=partialRectangle;collapsible=0;dropTarget=0;pointerEvents=0;fillColor=none;top=0;left=0;bottom=1;right=0;points=[[0,0.5],[1,0.5]];portConstraint=eastwest;" parent="YvqR_4JBAzZON_oEMTci-1" vertex="1">
          <mxGeometry y="30" width="180" height="30" as="geometry" />
        </mxCell>
        <mxCell id="YvqR_4JBAzZON_oEMTci-3" value="PK" style="shape=partialRectangle;connectable=0;fillColor=none;top=0;left=0;bottom=0;right=0;fontStyle=1;overflow=hidden;" parent="YvqR_4JBAzZON_oEMTci-2" vertex="1">
          <mxGeometry width="30" height="30" as="geometry" />
        </mxCell>
        <mxCell id="YvqR_4JBAzZON_oEMTci-4" value="EmployeeID" style="shape=partialRectangle;connectable=0;fillColor=none;top=0;left=0;bottom=0;right=0;align=left;spacingLeft=6;fontStyle=5;overflow=hidden;" parent="YvqR_4JBAzZON_oEMTci-2" vertex="1">
          <mxGeometry x="30" width="150" height="30" as="geometry" />
        </mxCell>
        <mxCell id="YvqR_4JBAzZON_oEMTci-5" value="" style="shape=partialRectangle;collapsible=0;dropTarget=0;pointerEvents=0;fillColor=none;top=0;left=0;bottom=0;right=0;points=[[0,0.5],[1,0.5]];portConstraint=eastwest;" parent="YvqR_4JBAzZON_oEMTci-1" vertex="1">
          <mxGeometry y="60" width="180" height="30" as="geometry" />
        </mxCell>
        <mxCell id="YvqR_4JBAzZON_oEMTci-6" value="" style="shape=partialRectangle;connectable=0;fillColor=none;top=0;left=0;bottom=0;right=0;editable=1;overflow=hidden;" parent="YvqR_4JBAzZON_oEMTci-5" vertex="1">
          <mxGeometry width="30" height="30" as="geometry" />
        </mxCell>
        <mxCell id="YvqR_4JBAzZON_oEMTci-7" value="FirstName" style="shape=partialRectangle;connectable=0;fillColor=none;top=0;left=0;bottom=0;right=0;align=left;spacingLeft=6;overflow=hidden;" parent="YvqR_4JBAzZON_oEMTci-5" vertex="1">
          <mxGeometry x="30" width="150" height="30" as="geometry" />
        </mxCell>
        <mxCell id="YvqR_4JBAzZON_oEMTci-8" value="" style="shape=partialRectangle;collapsible=0;dropTarget=0;pointerEvents=0;fillColor=none;top=0;left=0;bottom=0;right=0;points=[[0,0.5],[1,0.5]];portConstraint=eastwest;" parent="YvqR_4JBAzZON_oEMTci-1" vertex="1">
          <mxGeometry y="90" width="180" height="30" as="geometry" />
        </mxCell>
        <mxCell id="YvqR_4JBAzZON_oEMTci-9" value="" style="shape=partialRectangle;connectable=0;fillColor=none;top=0;left=0;bottom=0;right=0;editable=1;overflow=hidden;" parent="YvqR_4JBAzZON_oEMTci-8" vertex="1">
          <mxGeometry width="30" height="30" as="geometry" />
        </mxCell>
        <mxCell id="YvqR_4JBAzZON_oEMTci-10" value="LastName" style="shape=partialRectangle;connectable=0;fillColor=none;top=0;left=0;bottom=0;right=0;align=left;spacingLeft=6;overflow=hidden;" parent="YvqR_4JBAzZON_oEMTci-8" vertex="1">
          <mxGeometry x="30" width="150" height="30" as="geometry" />
        </mxCell>
        <mxCell id="YvqR_4JBAzZON_oEMTci-82" value="" style="shape=partialRectangle;collapsible=0;dropTarget=0;pointerEvents=0;fillColor=none;top=0;left=0;bottom=0;right=0;points=[[0,0.5],[1,0.5]];portConstraint=eastwest;" parent="YvqR_4JBAzZON_oEMTci-1" vertex="1">
          <mxGeometry y="120" width="180" height="30" as="geometry" />
        </mxCell>
        <mxCell id="YvqR_4JBAzZON_oEMTci-83" value="FK" style="shape=partialRectangle;connectable=0;fillColor=none;top=0;left=0;bottom=0;right=0;editable=1;overflow=hidden;" parent="YvqR_4JBAzZON_oEMTci-82" vertex="1">
          <mxGeometry width="30" height="30" as="geometry" />
        </mxCell>
        <mxCell id="YvqR_4JBAzZON_oEMTci-84" value="StoreNumber" style="shape=partialRectangle;connectable=0;fillColor=none;top=0;left=0;bottom=0;right=0;align=left;spacingLeft=6;overflow=hidden;" parent="YvqR_4JBAzZON_oEMTci-82" vertex="1">
          <mxGeometry x="30" width="150" height="30" as="geometry" />
        </mxCell>
        <mxCell id="YvqR_4JBAzZON_oEMTci-14" value="Store" style="shape=table;startSize=30;container=1;collapsible=1;childLayout=tableLayout;fixedRows=1;rowLines=0;fontStyle=1;align=center;resizeLast=1;" parent="1" vertex="1">
          <mxGeometry x="540" y="120" width="180" height="160" as="geometry" />
        </mxCell>
        <mxCell id="YvqR_4JBAzZON_oEMTci-15" value="" style="shape=partialRectangle;collapsible=0;dropTarget=0;pointerEvents=0;fillColor=none;top=0;left=0;bottom=1;right=0;points=[[0,0.5],[1,0.5]];portConstraint=eastwest;" parent="YvqR_4JBAzZON_oEMTci-14" vertex="1">
          <mxGeometry y="30" width="180" height="30" as="geometry" />
        </mxCell>
        <mxCell id="YvqR_4JBAzZON_oEMTci-16" value="PK" style="shape=partialRectangle;connectable=0;fillColor=none;top=0;left=0;bottom=0;right=0;fontStyle=1;overflow=hidden;" parent="YvqR_4JBAzZON_oEMTci-15" vertex="1">
          <mxGeometry width="30" height="30" as="geometry" />
        </mxCell>
        <mxCell id="YvqR_4JBAzZON_oEMTci-17" value="StoreNumber" style="shape=partialRectangle;connectable=0;fillColor=none;top=0;left=0;bottom=0;right=0;align=left;spacingLeft=6;fontStyle=5;overflow=hidden;" parent="YvqR_4JBAzZON_oEMTci-15" vertex="1">
          <mxGeometry x="30" width="150" height="30" as="geometry" />
        </mxCell>
        <mxCell id="YvqR_4JBAzZON_oEMTci-18" value="" style="shape=partialRectangle;collapsible=0;dropTarget=0;pointerEvents=0;fillColor=none;top=0;left=0;bottom=0;right=0;points=[[0,0.5],[1,0.5]];portConstraint=eastwest;" parent="YvqR_4JBAzZON_oEMTci-14" vertex="1">
          <mxGeometry y="60" width="180" height="30" as="geometry" />
        </mxCell>
        <mxCell id="YvqR_4JBAzZON_oEMTci-19" value="" style="shape=partialRectangle;connectable=0;fillColor=none;top=0;left=0;bottom=0;right=0;editable=1;overflow=hidden;" parent="YvqR_4JBAzZON_oEMTci-18" vertex="1">
          <mxGeometry width="30" height="30" as="geometry" />
        </mxCell>
        <mxCell id="YvqR_4JBAzZON_oEMTci-20" value="PhoneNumber" style="shape=partialRectangle;connectable=0;fillColor=none;top=0;left=0;bottom=0;right=0;align=left;spacingLeft=6;overflow=hidden;" parent="YvqR_4JBAzZON_oEMTci-18" vertex="1">
          <mxGeometry x="30" width="150" height="30" as="geometry" />
        </mxCell>
        <mxCell id="YvqR_4JBAzZON_oEMTci-21" value="" style="shape=partialRectangle;collapsible=0;dropTarget=0;pointerEvents=0;fillColor=none;top=0;left=0;bottom=0;right=0;points=[[0,0.5],[1,0.5]];portConstraint=eastwest;" parent="YvqR_4JBAzZON_oEMTci-14" vertex="1">
          <mxGeometry y="90" width="180" height="30" as="geometry" />
        </mxCell>
        <mxCell id="YvqR_4JBAzZON_oEMTci-22" value="" style="shape=partialRectangle;connectable=0;fillColor=none;top=0;left=0;bottom=0;right=0;editable=1;overflow=hidden;" parent="YvqR_4JBAzZON_oEMTci-21" vertex="1">
          <mxGeometry width="30" height="30" as="geometry" />
        </mxCell>
        <mxCell id="YvqR_4JBAzZON_oEMTci-23" value="StreetAddress" style="shape=partialRectangle;connectable=0;fillColor=none;top=0;left=0;bottom=0;right=0;align=left;spacingLeft=6;overflow=hidden;" parent="YvqR_4JBAzZON_oEMTci-21" vertex="1">
          <mxGeometry x="30" width="150" height="30" as="geometry" />
        </mxCell>
        <mxCell id="p0BTasZZkK4SvByg0xOl-68" value="" style="shape=partialRectangle;collapsible=0;dropTarget=0;pointerEvents=0;fillColor=none;top=0;left=0;bottom=0;right=0;points=[[0,0.5],[1,0.5]];portConstraint=eastwest;" vertex="1" parent="YvqR_4JBAzZON_oEMTci-14">
          <mxGeometry y="120" width="180" height="30" as="geometry" />
        </mxCell>
        <mxCell id="p0BTasZZkK4SvByg0xOl-69" value="" style="shape=partialRectangle;connectable=0;fillColor=none;top=0;left=0;bottom=0;right=0;editable=1;overflow=hidden;" vertex="1" parent="p0BTasZZkK4SvByg0xOl-68">
          <mxGeometry width="30" height="30" as="geometry" />
        </mxCell>
        <mxCell id="p0BTasZZkK4SvByg0xOl-70" value="Website" style="shape=partialRectangle;connectable=0;fillColor=none;top=0;left=0;bottom=0;right=0;align=left;spacingLeft=6;overflow=hidden;" vertex="1" parent="p0BTasZZkK4SvByg0xOl-68">
          <mxGeometry x="30" width="150" height="30" as="geometry" />
        </mxCell>
        <mxCell id="YvqR_4JBAzZON_oEMTci-68" style="edgeStyle=orthogonalEdgeStyle;rounded=0;orthogonalLoop=1;jettySize=auto;html=1;exitX=1;exitY=0.5;exitDx=0;exitDy=0;entryX=0;entryY=0.5;entryDx=0;entryDy=0;startArrow=ERmandOne;startFill=0;endArrow=ERzeroToMany;endFill=1;" parent="1" source="YvqR_4JBAzZON_oEMTci-28" target="YvqR_4JBAzZON_oEMTci-63" edge="1">
          <mxGeometry relative="1" as="geometry" />
        </mxCell>
        <mxCell id="YvqR_4JBAzZON_oEMTci-93" value="Discounts" style="edgeLabel;html=1;align=center;verticalAlign=middle;resizable=0;points=[];" parent="YvqR_4JBAzZON_oEMTci-68" vertex="1" connectable="0">
          <mxGeometry x="-0.2787" y="-1" relative="1" as="geometry">
            <mxPoint y="-2" as="offset" />
          </mxGeometry>
        </mxCell>
        <mxCell id="p0BTasZZkK4SvByg0xOl-44" value="(1,1)" style="edgeLabel;html=1;align=center;verticalAlign=middle;resizable=0;points=[];" vertex="1" connectable="0" parent="YvqR_4JBAzZON_oEMTci-68">
          <mxGeometry x="-0.9286" y="1" relative="1" as="geometry">
            <mxPoint y="16" as="offset" />
          </mxGeometry>
        </mxCell>
        <mxCell id="p0BTasZZkK4SvByg0xOl-45" value="(0,100)" style="edgeLabel;html=1;align=center;verticalAlign=middle;resizable=0;points=[];" vertex="1" connectable="0" parent="YvqR_4JBAzZON_oEMTci-68">
          <mxGeometry x="0.7071" relative="1" as="geometry">
            <mxPoint x="21" y="15" as="offset" />
          </mxGeometry>
        </mxCell>
        <mxCell id="YvqR_4JBAzZON_oEMTci-85" style="edgeStyle=orthogonalEdgeStyle;rounded=0;orthogonalLoop=1;jettySize=auto;html=1;exitX=1;exitY=0.5;exitDx=0;exitDy=0;entryX=0;entryY=0.5;entryDx=0;entryDy=0;startArrow=ERoneToMany;startFill=0;endArrow=ERmandOne;endFill=0;" parent="1" source="YvqR_4JBAzZON_oEMTci-82" target="YvqR_4JBAzZON_oEMTci-15" edge="1">
          <mxGeometry relative="1" as="geometry" />
        </mxCell>
        <mxCell id="YvqR_4JBAzZON_oEMTci-90" value="Works At" style="edgeLabel;html=1;align=center;verticalAlign=middle;resizable=0;points=[];" parent="YvqR_4JBAzZON_oEMTci-85" vertex="1" connectable="0">
          <mxGeometry x="0.0606" y="1" relative="1" as="geometry">
            <mxPoint as="offset" />
          </mxGeometry>
        </mxCell>
        <mxCell id="p0BTasZZkK4SvByg0xOl-34" value="(1,1)" style="edgeLabel;html=1;align=center;verticalAlign=middle;resizable=0;points=[];" vertex="1" connectable="0" parent="YvqR_4JBAzZON_oEMTci-85">
          <mxGeometry x="0.9212" relative="1" as="geometry">
            <mxPoint y="15" as="offset" />
          </mxGeometry>
        </mxCell>
        <mxCell id="p0BTasZZkK4SvByg0xOl-50" value="(1,25)" style="edgeLabel;html=1;align=center;verticalAlign=middle;resizable=0;points=[];" vertex="1" connectable="0" parent="YvqR_4JBAzZON_oEMTci-85">
          <mxGeometry x="-0.9212" y="2" relative="1" as="geometry">
            <mxPoint y="17" as="offset" />
          </mxGeometry>
        </mxCell>
        <mxCell id="YvqR_4JBAzZON_oEMTci-178" style="edgeStyle=orthogonalEdgeStyle;rounded=0;orthogonalLoop=1;jettySize=auto;html=1;exitX=1;exitY=0.5;exitDx=0;exitDy=0;entryX=0;entryY=0.5;entryDx=0;entryDy=0;startArrow=ERoneToMany;startFill=0;endArrow=ERmandOne;endFill=0;" parent="1" source="YvqR_4JBAzZON_oEMTci-15" target="YvqR_4JBAzZON_oEMTci-169" edge="1">
          <mxGeometry relative="1" as="geometry" />
        </mxCell>
        <mxCell id="p0BTasZZkK4SvByg0xOl-33" value="Displays" style="edgeLabel;html=1;align=center;verticalAlign=middle;resizable=0;points=[];" vertex="1" connectable="0" parent="YvqR_4JBAzZON_oEMTci-178">
          <mxGeometry x="-0.3333" y="-19" relative="1" as="geometry">
            <mxPoint x="20" y="30" as="offset" />
          </mxGeometry>
        </mxCell>
        <mxCell id="p0BTasZZkK4SvByg0xOl-35" value="(1,1)" style="edgeLabel;html=1;align=center;verticalAlign=middle;resizable=0;points=[];" vertex="1" connectable="0" parent="YvqR_4JBAzZON_oEMTci-178">
          <mxGeometry x="0.8778" relative="1" as="geometry">
            <mxPoint x="-9" y="15" as="offset" />
          </mxGeometry>
        </mxCell>
        <mxCell id="p0BTasZZkK4SvByg0xOl-49" value="(1,30)" style="edgeLabel;html=1;align=center;verticalAlign=middle;resizable=0;points=[];" vertex="1" connectable="0" parent="YvqR_4JBAzZON_oEMTci-178">
          <mxGeometry x="-0.8556" y="-2" relative="1" as="geometry">
            <mxPoint y="13" as="offset" />
          </mxGeometry>
        </mxCell>
        <mxCell id="YvqR_4JBAzZON_oEMTci-179" style="edgeStyle=orthogonalEdgeStyle;rounded=0;orthogonalLoop=1;jettySize=auto;html=1;entryX=1;entryY=0.5;entryDx=0;entryDy=0;startArrow=ERoneToMany;startFill=0;endArrow=ERmandOne;endFill=0;exitX=1;exitY=0.24;exitDx=0;exitDy=0;exitPerimeter=0;" parent="1" source="YvqR_4JBAzZON_oEMTci-41" target="YvqR_4JBAzZON_oEMTci-166" edge="1">
          <mxGeometry relative="1" as="geometry">
            <Array as="points">
              <mxPoint x="1070" y="372" />
              <mxPoint x="1070" y="195" />
            </Array>
          </mxGeometry>
        </mxCell>
        <mxCell id="p0BTasZZkK4SvByg0xOl-36" value="(1,1)" style="edgeLabel;html=1;align=center;verticalAlign=middle;resizable=0;points=[];" vertex="1" connectable="0" parent="YvqR_4JBAzZON_oEMTci-179">
          <mxGeometry x="0.8352" y="-1" relative="1" as="geometry">
            <mxPoint x="-17" y="16" as="offset" />
          </mxGeometry>
        </mxCell>
        <mxCell id="p0BTasZZkK4SvByg0xOl-40" value="Contains" style="edgeLabel;html=1;align=center;verticalAlign=middle;resizable=0;points=[];" vertex="1" connectable="0" parent="YvqR_4JBAzZON_oEMTci-179">
          <mxGeometry x="0.2355" y="1" relative="1" as="geometry">
            <mxPoint as="offset" />
          </mxGeometry>
        </mxCell>
        <mxCell id="p0BTasZZkK4SvByg0xOl-58" value="(1,35)" style="edgeLabel;html=1;align=center;verticalAlign=middle;resizable=0;points=[];" vertex="1" connectable="0" parent="YvqR_4JBAzZON_oEMTci-179">
          <mxGeometry x="-0.896" relative="1" as="geometry">
            <mxPoint y="-12" as="offset" />
          </mxGeometry>
        </mxCell>
        <mxCell id="YvqR_4JBAzZON_oEMTci-165" value="Menu" style="shape=table;startSize=30;container=1;collapsible=1;childLayout=tableLayout;fixedRows=1;rowLines=0;fontStyle=1;align=center;resizeLast=1;" parent="1" vertex="1">
          <mxGeometry x="840" y="150" width="180" height="100" as="geometry" />
        </mxCell>
        <mxCell id="YvqR_4JBAzZON_oEMTci-166" value="" style="shape=partialRectangle;collapsible=0;dropTarget=0;pointerEvents=0;fillColor=none;top=0;left=0;bottom=0;right=0;points=[[0,0.5],[1,0.5]];portConstraint=eastwest;" parent="YvqR_4JBAzZON_oEMTci-165" vertex="1">
          <mxGeometry y="30" width="180" height="30" as="geometry" />
        </mxCell>
        <mxCell id="YvqR_4JBAzZON_oEMTci-167" value="PK,FK1" style="shape=partialRectangle;connectable=0;fillColor=none;top=0;left=0;bottom=0;right=0;fontStyle=1;overflow=hidden;" parent="YvqR_4JBAzZON_oEMTci-166" vertex="1">
          <mxGeometry width="60" height="30" as="geometry" />
        </mxCell>
        <mxCell id="YvqR_4JBAzZON_oEMTci-168" value="ItemID" style="shape=partialRectangle;connectable=0;fillColor=none;top=0;left=0;bottom=0;right=0;align=left;spacingLeft=6;fontStyle=5;overflow=hidden;" parent="YvqR_4JBAzZON_oEMTci-166" vertex="1">
          <mxGeometry x="60" width="120" height="30" as="geometry" />
        </mxCell>
        <mxCell id="YvqR_4JBAzZON_oEMTci-169" value="" style="shape=partialRectangle;collapsible=0;dropTarget=0;pointerEvents=0;fillColor=none;top=0;left=0;bottom=1;right=0;points=[[0,0.5],[1,0.5]];portConstraint=eastwest;" parent="YvqR_4JBAzZON_oEMTci-165" vertex="1">
          <mxGeometry y="60" width="180" height="30" as="geometry" />
        </mxCell>
        <mxCell id="YvqR_4JBAzZON_oEMTci-170" value="PK,FK2" style="shape=partialRectangle;connectable=0;fillColor=none;top=0;left=0;bottom=0;right=0;fontStyle=1;overflow=hidden;" parent="YvqR_4JBAzZON_oEMTci-169" vertex="1">
          <mxGeometry width="60" height="30" as="geometry" />
        </mxCell>
        <mxCell id="YvqR_4JBAzZON_oEMTci-171" value="StoreNumber" style="shape=partialRectangle;connectable=0;fillColor=none;top=0;left=0;bottom=0;right=0;align=left;spacingLeft=6;fontStyle=5;overflow=hidden;" parent="YvqR_4JBAzZON_oEMTci-169" vertex="1">
          <mxGeometry x="60" width="120" height="30" as="geometry" />
        </mxCell>
        <mxCell id="p0BTasZZkK4SvByg0xOl-1" style="edgeStyle=orthogonalEdgeStyle;rounded=0;orthogonalLoop=1;jettySize=auto;html=1;exitX=0;exitY=0.5;exitDx=0;exitDy=0;entryX=1;entryY=0.5;entryDx=0;entryDy=0;startArrow=ERoneToMany;startFill=0;endArrow=ERmandOne;endFill=0;" edge="1" parent="1" source="YvqR_4JBAzZON_oEMTci-41" target="p0BTasZZkK4SvByg0xOl-3">
          <mxGeometry relative="1" as="geometry">
            <mxPoint x="730" y="645" as="targetPoint" />
          </mxGeometry>
        </mxCell>
        <mxCell id="p0BTasZZkK4SvByg0xOl-41" value="(1,1)" style="edgeLabel;html=1;align=center;verticalAlign=middle;resizable=0;points=[];" vertex="1" connectable="0" parent="p0BTasZZkK4SvByg0xOl-1">
          <mxGeometry x="0.8889" relative="1" as="geometry">
            <mxPoint y="15" as="offset" />
          </mxGeometry>
        </mxCell>
        <mxCell id="p0BTasZZkK4SvByg0xOl-47" value="(1,50)" style="edgeLabel;html=1;align=center;verticalAlign=middle;resizable=0;points=[];" vertex="1" connectable="0" parent="p0BTasZZkK4SvByg0xOl-1">
          <mxGeometry x="-0.5889" y="-1" relative="1" as="geometry">
            <mxPoint x="17" y="16" as="offset" />
          </mxGeometry>
        </mxCell>
        <mxCell id="p0BTasZZkK4SvByg0xOl-64" value="Bought" style="edgeLabel;html=1;align=center;verticalAlign=middle;resizable=0;points=[];" vertex="1" connectable="0" parent="p0BTasZZkK4SvByg0xOl-1">
          <mxGeometry x="0.1667" y="-1" relative="1" as="geometry">
            <mxPoint as="offset" />
          </mxGeometry>
        </mxCell>
        <mxCell id="YvqR_4JBAzZON_oEMTci-40" value="Items" style="shape=table;startSize=30;container=1;collapsible=1;childLayout=tableLayout;fixedRows=1;rowLines=0;fontStyle=1;align=center;resizeLast=1;" parent="1" vertex="1">
          <mxGeometry x="790" y="330" width="180" height="180" as="geometry" />
        </mxCell>
        <mxCell id="YvqR_4JBAzZON_oEMTci-41" value="" style="shape=partialRectangle;collapsible=0;dropTarget=0;pointerEvents=0;fillColor=none;top=0;left=0;bottom=1;right=0;points=[[0,0.5],[1,0.5]];portConstraint=eastwest;" parent="YvqR_4JBAzZON_oEMTci-40" vertex="1">
          <mxGeometry y="30" width="180" height="50" as="geometry" />
        </mxCell>
        <mxCell id="YvqR_4JBAzZON_oEMTci-42" value="PK" style="shape=partialRectangle;connectable=0;fillColor=none;top=0;left=0;bottom=0;right=0;fontStyle=1;overflow=hidden;" parent="YvqR_4JBAzZON_oEMTci-41" vertex="1">
          <mxGeometry width="30" height="50" as="geometry" />
        </mxCell>
        <mxCell id="YvqR_4JBAzZON_oEMTci-43" value="ItemID" style="shape=partialRectangle;connectable=0;fillColor=none;top=0;left=0;bottom=0;right=0;align=left;spacingLeft=6;fontStyle=5;overflow=hidden;" parent="YvqR_4JBAzZON_oEMTci-41" vertex="1">
          <mxGeometry x="30" width="150" height="50" as="geometry" />
        </mxCell>
        <mxCell id="YvqR_4JBAzZON_oEMTci-44" value="" style="shape=partialRectangle;collapsible=0;dropTarget=0;pointerEvents=0;fillColor=none;top=0;left=0;bottom=0;right=0;points=[[0,0.5],[1,0.5]];portConstraint=eastwest;" parent="YvqR_4JBAzZON_oEMTci-40" vertex="1">
          <mxGeometry y="80" width="180" height="30" as="geometry" />
        </mxCell>
        <mxCell id="YvqR_4JBAzZON_oEMTci-45" value="" style="shape=partialRectangle;connectable=0;fillColor=none;top=0;left=0;bottom=0;right=0;editable=1;overflow=hidden;" parent="YvqR_4JBAzZON_oEMTci-44" vertex="1">
          <mxGeometry width="30" height="30" as="geometry" />
        </mxCell>
        <mxCell id="YvqR_4JBAzZON_oEMTci-46" value="Price" style="shape=partialRectangle;connectable=0;fillColor=none;top=0;left=0;bottom=0;right=0;align=left;spacingLeft=6;overflow=hidden;" parent="YvqR_4JBAzZON_oEMTci-44" vertex="1">
          <mxGeometry x="30" width="150" height="30" as="geometry" />
        </mxCell>
        <mxCell id="YvqR_4JBAzZON_oEMTci-180" value="" style="shape=partialRectangle;collapsible=0;dropTarget=0;pointerEvents=0;fillColor=none;top=0;left=0;bottom=0;right=0;points=[[0,0.5],[1,0.5]];portConstraint=eastwest;" parent="YvqR_4JBAzZON_oEMTci-40" vertex="1">
          <mxGeometry y="110" width="180" height="30" as="geometry" />
        </mxCell>
        <mxCell id="YvqR_4JBAzZON_oEMTci-181" value="" style="shape=partialRectangle;connectable=0;fillColor=none;top=0;left=0;bottom=0;right=0;editable=1;overflow=hidden;" parent="YvqR_4JBAzZON_oEMTci-180" vertex="1">
          <mxGeometry width="30" height="30" as="geometry" />
        </mxCell>
        <mxCell id="YvqR_4JBAzZON_oEMTci-182" value="AmountInStock" style="shape=partialRectangle;connectable=0;fillColor=none;top=0;left=0;bottom=0;right=0;align=left;spacingLeft=6;overflow=hidden;" parent="YvqR_4JBAzZON_oEMTci-180" vertex="1">
          <mxGeometry x="30" width="150" height="30" as="geometry" />
        </mxCell>
        <mxCell id="p0BTasZZkK4SvByg0xOl-71" value="" style="shape=partialRectangle;collapsible=0;dropTarget=0;pointerEvents=0;fillColor=none;top=0;left=0;bottom=0;right=0;points=[[0,0.5],[1,0.5]];portConstraint=eastwest;" vertex="1" parent="YvqR_4JBAzZON_oEMTci-40">
          <mxGeometry y="140" width="180" height="30" as="geometry" />
        </mxCell>
        <mxCell id="p0BTasZZkK4SvByg0xOl-72" value="" style="shape=partialRectangle;connectable=0;fillColor=none;top=0;left=0;bottom=0;right=0;editable=1;overflow=hidden;" vertex="1" parent="p0BTasZZkK4SvByg0xOl-71">
          <mxGeometry width="30" height="30" as="geometry" />
        </mxCell>
        <mxCell id="p0BTasZZkK4SvByg0xOl-73" value="Name" style="shape=partialRectangle;connectable=0;fillColor=none;top=0;left=0;bottom=0;right=0;align=left;spacingLeft=6;overflow=hidden;" vertex="1" parent="p0BTasZZkK4SvByg0xOl-71">
          <mxGeometry x="30" width="150" height="30" as="geometry" />
        </mxCell>
        <mxCell id="p0BTasZZkK4SvByg0xOl-15" style="edgeStyle=orthogonalEdgeStyle;rounded=0;orthogonalLoop=1;jettySize=auto;html=1;exitX=1;exitY=0.5;exitDx=0;exitDy=0;entryX=0;entryY=0.5;entryDx=0;entryDy=0;endArrow=ERmandOne;endFill=0;startArrow=ERoneToMany;startFill=0;" edge="1" parent="1" source="YvqR_4JBAzZON_oEMTci-54" target="p0BTasZZkK4SvByg0xOl-6">
          <mxGeometry relative="1" as="geometry" />
        </mxCell>
        <mxCell id="p0BTasZZkK4SvByg0xOl-43" value="(1,1)" style="edgeLabel;html=1;align=center;verticalAlign=middle;resizable=0;points=[];" vertex="1" connectable="0" parent="p0BTasZZkK4SvByg0xOl-15">
          <mxGeometry x="0.7273" y="-1" relative="1" as="geometry">
            <mxPoint y="14" as="offset" />
          </mxGeometry>
        </mxCell>
        <mxCell id="p0BTasZZkK4SvByg0xOl-46" value="(1,50)" style="edgeLabel;html=1;align=center;verticalAlign=middle;resizable=0;points=[];" vertex="1" connectable="0" parent="p0BTasZZkK4SvByg0xOl-15">
          <mxGeometry x="-0.7636" relative="1" as="geometry">
            <mxPoint y="15" as="offset" />
          </mxGeometry>
        </mxCell>
        <mxCell id="p0BTasZZkK4SvByg0xOl-63" value="Bought" style="edgeLabel;html=1;align=center;verticalAlign=middle;resizable=0;points=[];" vertex="1" connectable="0" parent="p0BTasZZkK4SvByg0xOl-15">
          <mxGeometry x="-0.2" y="3" relative="1" as="geometry">
            <mxPoint x="6" y="8" as="offset" />
          </mxGeometry>
        </mxCell>
        <mxCell id="p0BTasZZkK4SvByg0xOl-17" style="edgeStyle=orthogonalEdgeStyle;rounded=0;orthogonalLoop=1;jettySize=auto;html=1;startArrow=ERzeroToMany;startFill=1;entryX=0;entryY=0.5;entryDx=0;entryDy=0;endArrow=ERmandOne;endFill=0;" edge="1" parent="1" target="p0BTasZZkK4SvByg0xOl-19">
          <mxGeometry relative="1" as="geometry">
            <mxPoint x="1128" y="447" as="targetPoint" />
            <mxPoint x="970" y="393" as="sourcePoint" />
            <Array as="points">
              <mxPoint x="1070" y="393" />
              <mxPoint x="1070" y="445" />
            </Array>
          </mxGeometry>
        </mxCell>
        <mxCell id="p0BTasZZkK4SvByg0xOl-37" value="(1,1)" style="edgeLabel;html=1;align=center;verticalAlign=middle;resizable=0;points=[];" vertex="1" connectable="0" parent="p0BTasZZkK4SvByg0xOl-17">
          <mxGeometry x="0.8651" relative="1" as="geometry">
            <mxPoint y="10" as="offset" />
          </mxGeometry>
        </mxCell>
        <mxCell id="p0BTasZZkK4SvByg0xOl-38" value="Have" style="edgeLabel;html=1;align=center;verticalAlign=middle;resizable=0;points=[];" vertex="1" connectable="0" parent="p0BTasZZkK4SvByg0xOl-17">
          <mxGeometry x="-0.2063" y="-9" relative="1" as="geometry">
            <mxPoint x="10" y="27" as="offset" />
          </mxGeometry>
        </mxCell>
        <mxCell id="p0BTasZZkK4SvByg0xOl-51" value="(0,5)" style="edgeLabel;html=1;align=center;verticalAlign=middle;resizable=0;points=[];" vertex="1" connectable="0" parent="p0BTasZZkK4SvByg0xOl-17">
          <mxGeometry x="-0.8889" y="-1" relative="1" as="geometry">
            <mxPoint y="16" as="offset" />
          </mxGeometry>
        </mxCell>
        <mxCell id="p0BTasZZkK4SvByg0xOl-18" value="AllergyInfo" style="shape=table;startSize=30;container=1;collapsible=1;childLayout=tableLayout;fixedRows=1;rowLines=0;fontStyle=1;align=center;resizeLast=1;" vertex="1" parent="1">
          <mxGeometry x="1170" y="400" width="180" height="100" as="geometry" />
        </mxCell>
        <mxCell id="p0BTasZZkK4SvByg0xOl-19" value="" style="shape=partialRectangle;collapsible=0;dropTarget=0;pointerEvents=0;fillColor=none;top=0;left=0;bottom=0;right=0;points=[[0,0.5],[1,0.5]];portConstraint=eastwest;" vertex="1" parent="p0BTasZZkK4SvByg0xOl-18">
          <mxGeometry y="30" width="180" height="30" as="geometry" />
        </mxCell>
        <mxCell id="p0BTasZZkK4SvByg0xOl-20" value="PK,FK1" style="shape=partialRectangle;connectable=0;fillColor=none;top=0;left=0;bottom=0;right=0;fontStyle=1;overflow=hidden;" vertex="1" parent="p0BTasZZkK4SvByg0xOl-19">
          <mxGeometry width="60" height="30" as="geometry" />
        </mxCell>
        <mxCell id="p0BTasZZkK4SvByg0xOl-21" value="ItemID" style="shape=partialRectangle;connectable=0;fillColor=none;top=0;left=0;bottom=0;right=0;align=left;spacingLeft=6;fontStyle=5;overflow=hidden;" vertex="1" parent="p0BTasZZkK4SvByg0xOl-19">
          <mxGeometry x="60" width="120" height="30" as="geometry" />
        </mxCell>
        <mxCell id="p0BTasZZkK4SvByg0xOl-22" value="" style="shape=partialRectangle;collapsible=0;dropTarget=0;pointerEvents=0;fillColor=none;top=0;left=0;bottom=1;right=0;points=[[0,0.5],[1,0.5]];portConstraint=eastwest;" vertex="1" parent="p0BTasZZkK4SvByg0xOl-18">
          <mxGeometry y="60" width="180" height="30" as="geometry" />
        </mxCell>
        <mxCell id="p0BTasZZkK4SvByg0xOl-23" value="PK,FK2" style="shape=partialRectangle;connectable=0;fillColor=none;top=0;left=0;bottom=0;right=0;fontStyle=1;overflow=hidden;" vertex="1" parent="p0BTasZZkK4SvByg0xOl-22">
          <mxGeometry width="60" height="30" as="geometry" />
        </mxCell>
        <mxCell id="p0BTasZZkK4SvByg0xOl-24" value="AllergyID" style="shape=partialRectangle;connectable=0;fillColor=none;top=0;left=0;bottom=0;right=0;align=left;spacingLeft=6;fontStyle=5;overflow=hidden;" vertex="1" parent="p0BTasZZkK4SvByg0xOl-22">
          <mxGeometry x="60" width="120" height="30" as="geometry" />
        </mxCell>
        <mxCell id="p0BTasZZkK4SvByg0xOl-32" style="edgeStyle=orthogonalEdgeStyle;rounded=0;orthogonalLoop=1;jettySize=auto;html=1;exitX=0;exitY=0.5;exitDx=0;exitDy=0;startArrow=ERmandOne;startFill=0;entryX=1;entryY=0.5;entryDx=0;entryDy=0;endArrow=ERoneToMany;endFill=0;" edge="1" parent="1" source="p0BTasZZkK4SvByg0xOl-22" target="YvqR_4JBAzZON_oEMTci-97">
          <mxGeometry relative="1" as="geometry">
            <mxPoint x="1160" y="580" as="targetPoint" />
          </mxGeometry>
        </mxCell>
        <mxCell id="p0BTasZZkK4SvByg0xOl-42" value="(1,1)" style="edgeLabel;html=1;align=center;verticalAlign=middle;resizable=0;points=[];" vertex="1" connectable="0" parent="p0BTasZZkK4SvByg0xOl-32">
          <mxGeometry x="-0.6571" y="-1" relative="1" as="geometry">
            <mxPoint x="16" y="11" as="offset" />
          </mxGeometry>
        </mxCell>
        <mxCell id="p0BTasZZkK4SvByg0xOl-48" value="Contains" style="edgeLabel;html=1;align=center;verticalAlign=middle;resizable=0;points=[];" vertex="1" connectable="0" parent="p0BTasZZkK4SvByg0xOl-32">
          <mxGeometry x="-0.219" y="1" relative="1" as="geometry">
            <mxPoint as="offset" />
          </mxGeometry>
        </mxCell>
        <mxCell id="p0BTasZZkK4SvByg0xOl-62" value="(1,5)" style="edgeLabel;html=1;align=center;verticalAlign=middle;resizable=0;points=[];" vertex="1" connectable="0" parent="p0BTasZZkK4SvByg0xOl-32">
          <mxGeometry x="0.9048" y="-2" relative="1" as="geometry">
            <mxPoint x="10" y="17" as="offset" />
          </mxGeometry>
        </mxCell>
        <mxCell id="YvqR_4JBAzZON_oEMTci-96" value="Allergy" style="shape=table;startSize=30;container=1;collapsible=1;childLayout=tableLayout;fixedRows=1;rowLines=0;fontStyle=1;align=center;resizeLast=1;" parent="1" vertex="1">
          <mxGeometry x="910" y="560" width="180" height="130" as="geometry" />
        </mxCell>
        <mxCell id="YvqR_4JBAzZON_oEMTci-97" value="" style="shape=partialRectangle;collapsible=0;dropTarget=0;pointerEvents=0;fillColor=none;top=0;left=0;bottom=1;right=0;points=[[0,0.5],[1,0.5]];portConstraint=eastwest;" parent="YvqR_4JBAzZON_oEMTci-96" vertex="1">
          <mxGeometry y="30" width="180" height="30" as="geometry" />
        </mxCell>
        <mxCell id="YvqR_4JBAzZON_oEMTci-98" value="PK" style="shape=partialRectangle;connectable=0;fillColor=none;top=0;left=0;bottom=0;right=0;fontStyle=1;overflow=hidden;" parent="YvqR_4JBAzZON_oEMTci-97" vertex="1">
          <mxGeometry width="30" height="30" as="geometry" />
        </mxCell>
        <mxCell id="YvqR_4JBAzZON_oEMTci-99" value="AllergyID" style="shape=partialRectangle;connectable=0;fillColor=none;top=0;left=0;bottom=0;right=0;align=left;spacingLeft=6;fontStyle=5;overflow=hidden;" parent="YvqR_4JBAzZON_oEMTci-97" vertex="1">
          <mxGeometry x="30" width="150" height="30" as="geometry" />
        </mxCell>
        <mxCell id="YvqR_4JBAzZON_oEMTci-100" value="" style="shape=partialRectangle;collapsible=0;dropTarget=0;pointerEvents=0;fillColor=none;top=0;left=0;bottom=0;right=0;points=[[0,0.5],[1,0.5]];portConstraint=eastwest;" parent="YvqR_4JBAzZON_oEMTci-96" vertex="1">
          <mxGeometry y="60" width="180" height="30" as="geometry" />
        </mxCell>
        <mxCell id="YvqR_4JBAzZON_oEMTci-101" value="" style="shape=partialRectangle;connectable=0;fillColor=none;top=0;left=0;bottom=0;right=0;editable=1;overflow=hidden;" parent="YvqR_4JBAzZON_oEMTci-100" vertex="1">
          <mxGeometry width="30" height="30" as="geometry" />
        </mxCell>
        <mxCell id="YvqR_4JBAzZON_oEMTci-102" value="Type" style="shape=partialRectangle;connectable=0;fillColor=none;top=0;left=0;bottom=0;right=0;align=left;spacingLeft=6;overflow=hidden;" parent="YvqR_4JBAzZON_oEMTci-100" vertex="1">
          <mxGeometry x="30" width="150" height="30" as="geometry" />
        </mxCell>
        <mxCell id="YvqR_4JBAzZON_oEMTci-103" value="" style="shape=partialRectangle;collapsible=0;dropTarget=0;pointerEvents=0;fillColor=none;top=0;left=0;bottom=0;right=0;points=[[0,0.5],[1,0.5]];portConstraint=eastwest;" parent="YvqR_4JBAzZON_oEMTci-96" vertex="1">
          <mxGeometry y="90" width="180" height="30" as="geometry" />
        </mxCell>
        <mxCell id="YvqR_4JBAzZON_oEMTci-104" value="" style="shape=partialRectangle;connectable=0;fillColor=none;top=0;left=0;bottom=0;right=0;editable=1;overflow=hidden;" parent="YvqR_4JBAzZON_oEMTci-103" vertex="1">
          <mxGeometry width="30" height="30" as="geometry" />
        </mxCell>
        <mxCell id="YvqR_4JBAzZON_oEMTci-105" value="Severity" style="shape=partialRectangle;connectable=0;fillColor=none;top=0;left=0;bottom=0;right=0;align=left;spacingLeft=6;overflow=hidden;" parent="YvqR_4JBAzZON_oEMTci-103" vertex="1">
          <mxGeometry x="30" width="150" height="30" as="geometry" />
        </mxCell>
        <mxCell id="p0BTasZZkK4SvByg0xOl-2" value="Items Purchased" style="shape=table;startSize=30;container=1;collapsible=1;childLayout=tableLayout;fixedRows=1;rowLines=0;fontStyle=1;align=center;resizeLast=1;" vertex="1" parent="1">
          <mxGeometry x="530" y="440" width="180" height="100" as="geometry" />
        </mxCell>
        <mxCell id="p0BTasZZkK4SvByg0xOl-3" value="" style="shape=partialRectangle;collapsible=0;dropTarget=0;pointerEvents=0;fillColor=none;top=0;left=0;bottom=0;right=0;points=[[0,0.5],[1,0.5]];portConstraint=eastwest;" vertex="1" parent="p0BTasZZkK4SvByg0xOl-2">
          <mxGeometry y="30" width="180" height="30" as="geometry" />
        </mxCell>
        <mxCell id="p0BTasZZkK4SvByg0xOl-4" value="PK,FK1" style="shape=partialRectangle;connectable=0;fillColor=none;top=0;left=0;bottom=0;right=0;fontStyle=1;overflow=hidden;" vertex="1" parent="p0BTasZZkK4SvByg0xOl-3">
          <mxGeometry width="60" height="30" as="geometry" />
        </mxCell>
        <mxCell id="p0BTasZZkK4SvByg0xOl-5" value="ItemID" style="shape=partialRectangle;connectable=0;fillColor=none;top=0;left=0;bottom=0;right=0;align=left;spacingLeft=6;fontStyle=5;overflow=hidden;" vertex="1" parent="p0BTasZZkK4SvByg0xOl-3">
          <mxGeometry x="60" width="120" height="30" as="geometry" />
        </mxCell>
        <mxCell id="p0BTasZZkK4SvByg0xOl-6" value="" style="shape=partialRectangle;collapsible=0;dropTarget=0;pointerEvents=0;fillColor=none;top=0;left=0;bottom=1;right=0;points=[[0,0.5],[1,0.5]];portConstraint=eastwest;" vertex="1" parent="p0BTasZZkK4SvByg0xOl-2">
          <mxGeometry y="60" width="180" height="30" as="geometry" />
        </mxCell>
        <mxCell id="p0BTasZZkK4SvByg0xOl-7" value="PK,FK2" style="shape=partialRectangle;connectable=0;fillColor=none;top=0;left=0;bottom=0;right=0;fontStyle=1;overflow=hidden;" vertex="1" parent="p0BTasZZkK4SvByg0xOl-6">
          <mxGeometry width="60" height="30" as="geometry" />
        </mxCell>
        <mxCell id="p0BTasZZkK4SvByg0xOl-8" value="PurchaseNumber" style="shape=partialRectangle;connectable=0;fillColor=none;top=0;left=0;bottom=0;right=0;align=left;spacingLeft=6;fontStyle=5;overflow=hidden;" vertex="1" parent="p0BTasZZkK4SvByg0xOl-6">
          <mxGeometry x="60" width="120" height="30" as="geometry" />
        </mxCell>
        <mxCell id="YvqR_4JBAzZON_oEMTci-53" value="Purchases" style="shape=table;startSize=30;container=1;collapsible=1;childLayout=tableLayout;fixedRows=1;rowLines=0;fontStyle=1;align=center;resizeLast=1;" parent="1" vertex="1">
          <mxGeometry x="240" y="470" width="180" height="160" as="geometry" />
        </mxCell>
        <mxCell id="YvqR_4JBAzZON_oEMTci-54" value="" style="shape=partialRectangle;collapsible=0;dropTarget=0;pointerEvents=0;fillColor=none;top=0;left=0;bottom=1;right=0;points=[[0,0.5],[1,0.5]];portConstraint=eastwest;" parent="YvqR_4JBAzZON_oEMTci-53" vertex="1">
          <mxGeometry y="30" width="180" height="30" as="geometry" />
        </mxCell>
        <mxCell id="YvqR_4JBAzZON_oEMTci-55" value="PK" style="shape=partialRectangle;connectable=0;fillColor=none;top=0;left=0;bottom=0;right=0;fontStyle=1;overflow=hidden;" parent="YvqR_4JBAzZON_oEMTci-54" vertex="1">
          <mxGeometry width="30" height="30" as="geometry" />
        </mxCell>
        <mxCell id="YvqR_4JBAzZON_oEMTci-56" value="PurchaseNumber" style="shape=partialRectangle;connectable=0;fillColor=none;top=0;left=0;bottom=0;right=0;align=left;spacingLeft=6;fontStyle=5;overflow=hidden;" parent="YvqR_4JBAzZON_oEMTci-54" vertex="1">
          <mxGeometry x="30" width="150" height="30" as="geometry" />
        </mxCell>
        <mxCell id="YvqR_4JBAzZON_oEMTci-60" value="" style="shape=partialRectangle;collapsible=0;dropTarget=0;pointerEvents=0;fillColor=none;top=0;left=0;bottom=0;right=0;points=[[0,0.5],[1,0.5]];portConstraint=eastwest;" parent="YvqR_4JBAzZON_oEMTci-53" vertex="1">
          <mxGeometry y="60" width="180" height="30" as="geometry" />
        </mxCell>
        <mxCell id="YvqR_4JBAzZON_oEMTci-61" value="" style="shape=partialRectangle;connectable=0;fillColor=none;top=0;left=0;bottom=0;right=0;editable=1;overflow=hidden;" parent="YvqR_4JBAzZON_oEMTci-60" vertex="1">
          <mxGeometry width="30" height="30" as="geometry" />
        </mxCell>
        <mxCell id="YvqR_4JBAzZON_oEMTci-62" value="TotalCost" style="shape=partialRectangle;connectable=0;fillColor=none;top=0;left=0;bottom=0;right=0;align=left;spacingLeft=6;overflow=hidden;" parent="YvqR_4JBAzZON_oEMTci-60" vertex="1">
          <mxGeometry x="30" width="150" height="30" as="geometry" />
        </mxCell>
        <mxCell id="YvqR_4JBAzZON_oEMTci-63" value="" style="shape=partialRectangle;collapsible=0;dropTarget=0;pointerEvents=0;fillColor=none;top=0;left=0;bottom=0;right=0;points=[[0,0.5],[1,0.5]];portConstraint=eastwest;" parent="YvqR_4JBAzZON_oEMTci-53" vertex="1">
          <mxGeometry y="90" width="180" height="30" as="geometry" />
        </mxCell>
        <mxCell id="YvqR_4JBAzZON_oEMTci-64" value="FK" style="shape=partialRectangle;connectable=0;fillColor=none;top=0;left=0;bottom=0;right=0;editable=1;overflow=hidden;" parent="YvqR_4JBAzZON_oEMTci-63" vertex="1">
          <mxGeometry width="30" height="30" as="geometry" />
        </mxCell>
        <mxCell id="YvqR_4JBAzZON_oEMTci-65" value="LoyaltyCard" style="shape=partialRectangle;connectable=0;fillColor=none;top=0;left=0;bottom=0;right=0;align=left;spacingLeft=6;overflow=hidden;" parent="YvqR_4JBAzZON_oEMTci-63" vertex="1">
          <mxGeometry x="30" width="150" height="30" as="geometry" />
        </mxCell>
        <mxCell id="p0BTasZZkK4SvByg0xOl-65" value="" style="shape=partialRectangle;collapsible=0;dropTarget=0;pointerEvents=0;fillColor=none;top=0;left=0;bottom=0;right=0;points=[[0,0.5],[1,0.5]];portConstraint=eastwest;" vertex="1" parent="YvqR_4JBAzZON_oEMTci-53">
          <mxGeometry y="120" width="180" height="30" as="geometry" />
        </mxCell>
        <mxCell id="p0BTasZZkK4SvByg0xOl-66" value="" style="shape=partialRectangle;connectable=0;fillColor=none;top=0;left=0;bottom=0;right=0;editable=1;overflow=hidden;" vertex="1" parent="p0BTasZZkK4SvByg0xOl-65">
          <mxGeometry width="30" height="30" as="geometry" />
        </mxCell>
        <mxCell id="p0BTasZZkK4SvByg0xOl-67" value="Date" style="shape=partialRectangle;connectable=0;fillColor=none;top=0;left=0;bottom=0;right=0;align=left;spacingLeft=6;overflow=hidden;" vertex="1" parent="p0BTasZZkK4SvByg0xOl-65">
          <mxGeometry x="30" width="150" height="30" as="geometry" />
        </mxCell>
        <mxCell id="YvqR_4JBAzZON_oEMTci-27" value="Loyalty" style="shape=table;startSize=30;container=1;collapsible=1;childLayout=tableLayout;fixedRows=1;rowLines=0;fontStyle=1;align=center;resizeLast=1;" parent="1" vertex="1">
          <mxGeometry x="-30" y="340" width="180" height="250" as="geometry" />
        </mxCell>
        <mxCell id="YvqR_4JBAzZON_oEMTci-28" value="" style="shape=partialRectangle;collapsible=0;dropTarget=0;pointerEvents=0;fillColor=none;top=0;left=0;bottom=1;right=0;points=[[0,0.5],[1,0.5]];portConstraint=eastwest;" parent="YvqR_4JBAzZON_oEMTci-27" vertex="1">
          <mxGeometry y="30" width="180" height="30" as="geometry" />
        </mxCell>
        <mxCell id="YvqR_4JBAzZON_oEMTci-29" value="PK" style="shape=partialRectangle;connectable=0;fillColor=none;top=0;left=0;bottom=0;right=0;fontStyle=1;overflow=hidden;" parent="YvqR_4JBAzZON_oEMTci-28" vertex="1">
          <mxGeometry width="30" height="30" as="geometry" />
        </mxCell>
        <mxCell id="YvqR_4JBAzZON_oEMTci-30" value="CardID" style="shape=partialRectangle;connectable=0;fillColor=none;top=0;left=0;bottom=0;right=0;align=left;spacingLeft=6;fontStyle=5;overflow=hidden;" parent="YvqR_4JBAzZON_oEMTci-28" vertex="1">
          <mxGeometry x="30" width="150" height="30" as="geometry" />
        </mxCell>
        <mxCell id="YvqR_4JBAzZON_oEMTci-31" value="" style="shape=partialRectangle;collapsible=0;dropTarget=0;pointerEvents=0;fillColor=none;top=0;left=0;bottom=0;right=0;points=[[0,0.5],[1,0.5]];portConstraint=eastwest;" parent="YvqR_4JBAzZON_oEMTci-27" vertex="1">
          <mxGeometry y="60" width="180" height="30" as="geometry" />
        </mxCell>
        <mxCell id="YvqR_4JBAzZON_oEMTci-32" value="" style="shape=partialRectangle;connectable=0;fillColor=none;top=0;left=0;bottom=0;right=0;editable=1;overflow=hidden;" parent="YvqR_4JBAzZON_oEMTci-31" vertex="1">
          <mxGeometry width="30" height="30" as="geometry" />
        </mxCell>
        <mxCell id="YvqR_4JBAzZON_oEMTci-33" value="FirstName" style="shape=partialRectangle;connectable=0;fillColor=none;top=0;left=0;bottom=0;right=0;align=left;spacingLeft=6;overflow=hidden;" parent="YvqR_4JBAzZON_oEMTci-31" vertex="1">
          <mxGeometry x="30" width="150" height="30" as="geometry" />
        </mxCell>
        <mxCell id="YvqR_4JBAzZON_oEMTci-34" value="" style="shape=partialRectangle;collapsible=0;dropTarget=0;pointerEvents=0;fillColor=none;top=0;left=0;bottom=0;right=0;points=[[0,0.5],[1,0.5]];portConstraint=eastwest;" parent="YvqR_4JBAzZON_oEMTci-27" vertex="1">
          <mxGeometry y="90" width="180" height="30" as="geometry" />
        </mxCell>
        <mxCell id="YvqR_4JBAzZON_oEMTci-35" value="" style="shape=partialRectangle;connectable=0;fillColor=none;top=0;left=0;bottom=0;right=0;editable=1;overflow=hidden;" parent="YvqR_4JBAzZON_oEMTci-34" vertex="1">
          <mxGeometry width="30" height="30" as="geometry" />
        </mxCell>
        <mxCell id="YvqR_4JBAzZON_oEMTci-36" value="LastName" style="shape=partialRectangle;connectable=0;fillColor=none;top=0;left=0;bottom=0;right=0;align=left;spacingLeft=6;overflow=hidden;" parent="YvqR_4JBAzZON_oEMTci-34" vertex="1">
          <mxGeometry x="30" width="150" height="30" as="geometry" />
        </mxCell>
        <mxCell id="YvqR_4JBAzZON_oEMTci-37" value="" style="shape=partialRectangle;collapsible=0;dropTarget=0;pointerEvents=0;fillColor=none;top=0;left=0;bottom=0;right=0;points=[[0,0.5],[1,0.5]];portConstraint=eastwest;" parent="YvqR_4JBAzZON_oEMTci-27" vertex="1">
          <mxGeometry y="120" width="180" height="30" as="geometry" />
        </mxCell>
        <mxCell id="YvqR_4JBAzZON_oEMTci-38" value="" style="shape=partialRectangle;connectable=0;fillColor=none;top=0;left=0;bottom=0;right=0;editable=1;overflow=hidden;" parent="YvqR_4JBAzZON_oEMTci-37" vertex="1">
          <mxGeometry width="30" height="30" as="geometry" />
        </mxCell>
        <mxCell id="YvqR_4JBAzZON_oEMTci-39" value="PhoneNumber" style="shape=partialRectangle;connectable=0;fillColor=none;top=0;left=0;bottom=0;right=0;align=left;spacingLeft=6;overflow=hidden;" parent="YvqR_4JBAzZON_oEMTci-37" vertex="1">
          <mxGeometry x="30" width="150" height="30" as="geometry" />
        </mxCell>
        <mxCell id="p0BTasZZkK4SvByg0xOl-52" value="" style="shape=partialRectangle;collapsible=0;dropTarget=0;pointerEvents=0;fillColor=none;top=0;left=0;bottom=0;right=0;points=[[0,0.5],[1,0.5]];portConstraint=eastwest;" vertex="1" parent="YvqR_4JBAzZON_oEMTci-27">
          <mxGeometry y="150" width="180" height="30" as="geometry" />
        </mxCell>
        <mxCell id="p0BTasZZkK4SvByg0xOl-53" value="" style="shape=partialRectangle;connectable=0;fillColor=none;top=0;left=0;bottom=0;right=0;editable=1;overflow=hidden;" vertex="1" parent="p0BTasZZkK4SvByg0xOl-52">
          <mxGeometry width="30" height="30" as="geometry" />
        </mxCell>
        <mxCell id="p0BTasZZkK4SvByg0xOl-54" value="Points" style="shape=partialRectangle;connectable=0;fillColor=none;top=0;left=0;bottom=0;right=0;align=left;spacingLeft=6;overflow=hidden;" vertex="1" parent="p0BTasZZkK4SvByg0xOl-52">
          <mxGeometry x="30" width="150" height="30" as="geometry" />
        </mxCell>
        <mxCell id="p0BTasZZkK4SvByg0xOl-55" value="" style="shape=partialRectangle;collapsible=0;dropTarget=0;pointerEvents=0;fillColor=none;top=0;left=0;bottom=0;right=0;points=[[0,0.5],[1,0.5]];portConstraint=eastwest;" vertex="1" parent="YvqR_4JBAzZON_oEMTci-27">
          <mxGeometry y="180" width="180" height="30" as="geometry" />
        </mxCell>
        <mxCell id="p0BTasZZkK4SvByg0xOl-56" value="" style="shape=partialRectangle;connectable=0;fillColor=none;top=0;left=0;bottom=0;right=0;editable=1;overflow=hidden;" vertex="1" parent="p0BTasZZkK4SvByg0xOl-55">
          <mxGeometry width="30" height="30" as="geometry" />
        </mxCell>
        <mxCell id="p0BTasZZkK4SvByg0xOl-57" value="DoB" style="shape=partialRectangle;connectable=0;fillColor=none;top=0;left=0;bottom=0;right=0;align=left;spacingLeft=6;overflow=hidden;" vertex="1" parent="p0BTasZZkK4SvByg0xOl-55">
          <mxGeometry x="30" width="150" height="30" as="geometry" />
        </mxCell>
        <mxCell id="p0BTasZZkK4SvByg0xOl-59" value="" style="shape=partialRectangle;collapsible=0;dropTarget=0;pointerEvents=0;fillColor=none;top=0;left=0;bottom=0;right=0;points=[[0,0.5],[1,0.5]];portConstraint=eastwest;" vertex="1" parent="YvqR_4JBAzZON_oEMTci-27">
          <mxGeometry y="210" width="180" height="30" as="geometry" />
        </mxCell>
        <mxCell id="p0BTasZZkK4SvByg0xOl-60" value="" style="shape=partialRectangle;connectable=0;fillColor=none;top=0;left=0;bottom=0;right=0;editable=1;overflow=hidden;" vertex="1" parent="p0BTasZZkK4SvByg0xOl-59">
          <mxGeometry width="30" height="30" as="geometry" />
        </mxCell>
        <mxCell id="p0BTasZZkK4SvByg0xOl-61" value="Email" style="shape=partialRectangle;connectable=0;fillColor=none;top=0;left=0;bottom=0;right=0;align=left;spacingLeft=6;overflow=hidden;" vertex="1" parent="p0BTasZZkK4SvByg0xOl-59">
          <mxGeometry x="30" width="150" height="30" as="geometry" />
        </mxCell>
      </root>
    </mxGraphModel>
  </diagram>
</mxfile>
